<?xml version="1.0" encoding="UTF-8"?>
<svg xmlns="http://www.w3.org/2000/svg" xmlns:xlink="http://www.w3.org/1999/xlink" width="330.2pt" height="148.2pt" viewBox="0 0 330.2 148.2" version="1.1">
<defs>
<clipPath id="clip1">
  <path d="M 0 0 L 117 0 L 117 148.199219 L 0 148.199219 Z M 0 0 "/>
</clipPath>
</defs>
<g id="surface1">
<g clip-path="url(#clip1)" clip-rule="nonzero">
<path style=" stroke:none;fill-rule:evenodd;fill:rgb(0%,33.714294%,59.568787%);fill-opacity:1;" d="M 0.015625 0.0976563 L 0.015625 71.234375 C 0.015625 105.179688 28.34375 140.820313 58.0625 148.175781 C 87.785156 140.820313 116.113281 105.179688 116.113281 71.234375 L 116.113281 0.0976563 Z M 3.226563 46.355469 L 3.226563 71.195313 L 3.304688 74.257813 L 3.542969 77.289063 L 3.917969 80.328125 L 4.445313 83.367188 L 5.109375 86.398438 L 5.917969 89.417969 L 7.914063 95.40625 L 10.402344 101.273438 L 13.34375 106.980469 L 16.710938 112.476563 L 20.441406 117.71875 L 24.515625 122.660156 L 28.882813 127.253906 L 33.503906 131.453125 L 38.332031 135.214844 L 43.320313 138.496094 L 45.863281 139.941406 L 48.429688 141.253906 L 51.015625 142.425781 L 53.617188 143.453125 L 58.0625 144.84375 L 62.507813 143.453125 L 65.109375 142.425781 L 67.695313 141.253906 L 70.265625 139.941406 L 75.320313 136.917969 L 80.234375 133.390625 L 84.964844 129.402344 L 89.464844 125.003906 L 93.6875 120.230469 L 97.597656 115.132813 L 101.152344 109.757813 L 104.308594 104.148438 L 107.03125 98.355469 L 109.28125 92.421875 L 110.214844 89.417969 L 111.015625 86.398438 L 111.683594 83.367188 L 112.210938 80.328125 L 112.589844 77.289063 L 112.820313 74.257813 L 112.898438 71.195313 L 112.898438 46.355469 Z M 3.226563 46.355469 "/>
</g>
<path style=" stroke:none;fill-rule:evenodd;fill:rgb(95.3125%,56.443787%,0%);fill-opacity:1;" d="M 88.933594 37.03125 C 89.925781 37.488281 91.035156 37.746094 92.203125 37.746094 C 96.507813 37.746094 100.027344 34.230469 100.027344 29.917969 C 100.027344 27.324219 98.753906 25.019531 96.800781 23.59375 C 95.632813 26.140625 93.632813 28.230469 91.152344 29.515625 C 91.15625 29.648438 91.160156 29.785156 91.160156 29.917969 C 91.160156 32.554688 90.339844 35.007813 88.933594 37.03125 Z M 84.429688 30.875 C 84.558594 31.933594 84.902344 32.929688 85.414063 33.820313 C 85.929688 32.929688 86.273438 31.933594 86.402344 30.875 C 86.082031 30.898438 85.753906 30.914063 85.417969 30.914063 C 85.089844 30.914063 84.753906 30.898438 84.429688 30.875 Z M 80.8125 24.710938 C 81.121094 24.042969 81.484375 23.40625 81.902344 22.804688 C 80.90625 22.347656 79.800781 22.089844 78.636719 22.089844 C 78.597656 22.089844 78.5625 22.089844 78.523438 22.089844 C 79.085938 23.125 79.867188 24.019531 80.8125 24.710938 Z M 81.898438 37.027344 C 80.496094 35.007813 79.675781 32.554688 79.675781 29.917969 C 79.675781 29.785156 79.675781 29.648438 79.679688 29.515625 C 77.207031 28.230469 75.203125 26.140625 74.03125 23.59375 C 72.082031 25.019531 70.808594 27.324219 70.808594 29.917969 C 70.808594 34.230469 74.328125 37.746094 78.632813 37.746094 C 79.796875 37.746094 80.90625 37.488281 81.898438 37.027344 Z M 97.933594 18.789063 C 101.964844 20.875 104.722656 25.085938 104.722656 29.917969 C 104.722656 36.816406 99.097656 42.441406 92.203125 42.441406 C 89.707031 42.441406 87.371094 41.703125 85.417969 40.4375 C 83.464844 41.703125 81.128906 42.441406 78.636719 42.441406 C 71.738281 42.441406 66.109375 36.816406 66.109375 29.917969 C 66.109375 25.085938 68.878906 20.875 72.898438 18.789063 C 72.894531 18.65625 72.894531 18.523438 72.894531 18.390625 C 72.894531 11.492188 78.519531 5.863281 85.417969 5.863281 C 92.3125 5.863281 97.941406 11.492188 97.941406 18.390625 C 97.941406 18.523438 97.9375 18.65625 97.933594 18.789063 Z M 88.933594 22.804688 C 89.347656 23.40625 89.714844 24.042969 90.019531 24.710938 C 90.964844 24.023438 91.753906 23.125 92.308594 22.09375 C 92.273438 22.089844 92.234375 22.089844 92.203125 22.089844 C 91.035156 22.089844 89.925781 22.347656 88.933594 22.804688 Z M 85.417969 10.5625 C 81.429688 10.5625 78.121094 13.570313 77.648438 17.433594 C 77.972656 17.40625 78.300781 17.394531 78.636719 17.394531 C 81.128906 17.394531 83.464844 18.132813 85.417969 19.398438 C 87.371094 18.132813 89.707031 17.394531 92.203125 17.394531 C 92.53125 17.394531 92.859375 17.40625 93.183594 17.433594 C 92.714844 13.570313 89.40625 10.5625 85.417969 10.5625 Z M 85.417969 10.5625 "/>
<path style=" stroke:none;fill-rule:evenodd;fill:rgb(100%,100%,100%);fill-opacity:1;" d="M 85.417969 7.105469 C 79.253906 7.105469 74.21875 12.089844 74.132813 18.234375 C 74.855469 17.953125 75.609375 17.738281 76.382813 17.597656 C 76.789063 12.972656 80.6875 9.320313 85.417969 9.320313 C 90.410156 9.320313 94.484375 13.394531 94.484375 18.390625 C 94.484375 23.382813 90.410156 27.457031 85.417969 27.457031 C 85.203125 27.457031 84.988281 27.449219 84.777344 27.433594 C 84.542969 28.125 84.40625 28.863281 84.378906 29.625 C 84.71875 29.65625 85.066406 29.671875 85.417969 29.671875 C 91.632813 29.671875 96.703125 24.605469 96.703125 18.390625 C 96.703125 12.171875 91.632813 7.105469 85.417969 7.105469 Z M 75.09375 22.941406 C 76.070313 25.140625 77.726563 26.972656 79.796875 28.167969 C 79.90625 27.382813 80.089844 26.625 80.339844 25.894531 C 78.992188 24.980469 77.902344 23.710938 77.207031 22.222656 C 76.460938 22.359375 75.753906 22.605469 75.09375 22.941406 Z M 75.09375 22.941406 "/>
<path style=" stroke:none;fill-rule:evenodd;fill:rgb(100%,100%,100%);fill-opacity:1;" d="M 78.636719 18.632813 C 72.417969 18.632813 67.351563 23.703125 67.351563 29.917969 C 67.351563 36.132813 72.417969 41.203125 78.636719 41.203125 C 80.714844 41.203125 82.660156 40.636719 84.335938 39.652344 C 83.730469 39.164063 83.175781 38.621094 82.671875 38.03125 C 81.460938 38.640625 80.089844 38.984375 78.636719 38.984375 C 73.640625 38.984375 69.566406 34.910156 69.566406 29.917969 C 69.566406 24.925781 73.640625 20.851563 78.636719 20.851563 C 82.261719 20.851563 85.398438 22.996094 86.847656 26.085938 C 87.59375 25.945313 88.300781 25.699219 88.960938 25.367188 C 87.203125 21.40625 83.230469 18.632813 78.636719 18.632813 Z M 87.847656 36.417969 C 89.128906 34.617188 89.886719 32.429688 89.917969 30.074219 C 89.195313 30.351563 88.445313 30.566406 87.667969 30.710938 C 87.53125 32.257813 87.003906 33.695313 86.1875 34.921875 C 86.667969 35.496094 87.226563 36 87.847656 36.417969 Z M 87.847656 36.417969 "/>
<path style=" stroke:none;fill-rule:evenodd;fill:rgb(100%,100%,100%);fill-opacity:1;" d="M 92.203125 20.851563 C 92.414063 20.851563 92.628906 20.859375 92.839844 20.875 C 93.070313 20.179688 93.214844 19.445313 93.238281 18.683594 C 92.894531 18.652344 92.546875 18.632813 92.203125 18.632813 C 90.121094 18.632813 88.175781 19.199219 86.503906 20.1875 C 87.101563 20.671875 87.65625 21.214844 88.160156 21.804688 C 89.378906 21.195313 90.753906 20.851563 92.203125 20.851563 Z M 97.273438 22.410156 C 99.679688 24.042969 101.265625 26.800781 101.265625 29.917969 C 101.265625 34.910156 97.191406 38.984375 92.203125 38.984375 C 87.207031 38.984375 83.132813 34.910156 83.132813 29.917969 C 83.132813 28.070313 83.6875 26.347656 84.644531 24.914063 C 84.167969 24.339844 83.605469 23.832031 82.984375 23.414063 C 81.679688 25.253906 80.914063 27.5 80.914063 29.917969 C 80.914063 36.132813 85.984375 41.203125 92.203125 41.203125 C 98.414063 41.203125 103.484375 36.132813 103.484375 29.917969 C 103.484375 25.746094 101.199219 22.089844 97.816406 20.140625 C 97.710938 20.921875 97.523438 21.679688 97.273438 22.410156 Z M 97.273438 22.410156 "/>
<path style=" stroke:none;fill-rule:evenodd;fill:rgb(95.3125%,56.443787%,0%);fill-opacity:1;" d="M 11.40625 8.8125 C 18.785156 7.15625 26.195313 7.21875 32.777344 9.574219 C 39.363281 7.21875 46.773438 7.15625 54.152344 8.8125 L 54.152344 38.484375 C 45.355469 36.777344 38.519531 37.519531 32.777344 39.628906 C 27.035156 37.519531 20.203125 36.777344 11.40625 38.484375 Z M 11.40625 8.8125 "/>
<path style=" stroke:none;fill-rule:evenodd;fill:rgb(100%,100%,100%);fill-opacity:1;" d="M 19.078125 9.269531 C 20.386719 9.207031 21.679688 9.199219 22.992188 9.25 C 24.707031 9.34375 26.363281 9.539063 28.046875 9.859375 C 29.28125 10.117188 30.472656 10.429688 31.671875 10.816406 L 32.011719 10.933594 L 32.011719 33.703125 C 29.195313 32.789063 26.292969 32.285156 23.339844 32.0625 C 22.636719 32.019531 21.9375 31.992188 21.234375 31.976563 C 18.433594 31.960938 15.710938 32.1875 12.941406 32.621094 L 12.941406 10.054688 C 14.964844 9.644531 17.015625 9.402344 19.078125 9.269531 Z M 33.546875 10.933594 C 34.050781 10.765625 34.558594 10.601563 35.078125 10.449219 C 36.710938 9.996094 38.328125 9.675781 40.007813 9.460938 L 41.28125 9.332031 C 45.085938 9.050781 48.878906 9.300781 52.617188 10.054688 L 52.617188 32.621094 C 50.585938 32.304688 48.566406 32.09375 46.507813 32.003906 C 44.839844 31.953125 43.203125 31.988281 41.53125 32.113281 L 40.191406 32.25 C 37.933594 32.542969 35.710938 33 33.546875 33.703125 Z M 33.546875 10.933594 "/>
<path style=" stroke:none;fill-rule:evenodd;fill:rgb(0%,33.714294%,59.568787%);fill-opacity:1;" d="M 48.964844 28.828125 C 47.046875 27.96875 44.902344 27.636719 42.835938 27.707031 C 40.539063 27.78125 38.359375 28.347656 36.695313 29.238281 L 35.839844 27.625 C 37.746094 26.605469 40.214844 25.957031 42.773438 25.871094 C 45.09375 25.792969 47.515625 26.175781 49.710938 27.160156 Z M 48.964844 24.582031 C 47.046875 23.722656 44.902344 23.390625 42.835938 23.457031 C 40.539063 23.535156 38.359375 24.101563 36.695313 24.988281 L 35.839844 23.378906 C 37.746094 22.359375 40.214844 21.710938 42.773438 21.625 C 45.09375 21.546875 47.515625 21.929688 49.710938 22.914063 Z M 48.964844 20.335938 C 47.046875 19.476563 44.902344 19.140625 42.835938 19.210938 C 40.539063 19.289063 38.359375 19.855469 36.695313 20.742188 L 35.839844 19.128906 C 37.746094 18.109375 40.214844 17.460938 42.773438 17.375 C 45.09375 17.300781 47.515625 17.679688 49.710938 18.664063 Z M 48.964844 16.085938 C 47.046875 15.226563 44.902344 14.894531 42.835938 14.964844 C 40.539063 15.039063 38.359375 15.605469 36.695313 16.496094 L 35.839844 14.882813 C 37.746094 13.863281 40.214844 13.214844 42.773438 13.128906 C 45.09375 13.050781 47.515625 13.433594 49.710938 14.417969 Z M 16.589844 28.828125 C 18.507813 27.96875 20.652344 27.636719 22.726563 27.707031 C 25.015625 27.78125 27.195313 28.347656 28.859375 29.238281 L 29.722656 27.625 C 27.808594 26.605469 25.34375 25.957031 22.78125 25.871094 C 20.464844 25.792969 18.039063 26.175781 15.847656 27.160156 Z M 16.589844 24.582031 C 18.507813 23.722656 20.652344 23.390625 22.726563 23.457031 C 25.015625 23.535156 27.195313 24.101563 28.859375 24.988281 L 29.722656 23.378906 C 27.808594 22.359375 25.34375 21.710938 22.78125 21.625 C 20.464844 21.546875 18.039063 21.929688 15.847656 22.914063 Z M 16.589844 20.335938 C 18.507813 19.476563 20.652344 19.140625 22.726563 19.210938 C 25.015625 19.289063 27.195313 19.855469 28.859375 20.742188 L 29.722656 19.128906 C 27.808594 18.109375 25.34375 17.460938 22.78125 17.375 C 20.464844 17.300781 18.039063 17.679688 15.847656 18.664063 Z M 16.589844 16.085938 C 18.507813 15.226563 20.652344 14.894531 22.726563 14.964844 C 25.015625 15.039063 27.195313 15.605469 28.859375 16.496094 L 29.722656 14.882813 C 27.808594 13.863281 25.34375 13.214844 22.78125 13.128906 C 20.464844 13.050781 18.039063 13.433594 15.847656 14.417969 Z M 16.589844 16.085938 "/>
<path style=" stroke:none;fill-rule:evenodd;fill:rgb(0%,33.714294%,59.568787%);fill-opacity:1;" d="M 81.203125 112.089844 L 77.617188 112.082031 C 76.746094 112.09375 75.582031 112.410156 75.441406 113.453125 C 74.238281 113.410156 73.242188 114.222656 72.988281 115.714844 C 74.996094 114.761719 75.359375 115.484375 74.082031 117.894531 C 76.152344 116.535156 76.695313 117.789063 75.914063 120.015625 C 76.261719 119.476563 76.664063 119.136719 77.136719 119.058594 C 78.246094 120.386719 80.347656 120.089844 81.757813 119.757813 C 83.394531 119.371094 84.59375 119.101563 86.003906 118.734375 C 87.46875 118.347656 89.175781 117.59375 89.664063 116.011719 C 90.476563 114.152344 91.285156 112.289063 92.046875 110.40625 C 93.550781 107.246094 94.710938 106.511719 97.867188 104.683594 C 97.558594 104.152344 97.046875 103.78125 96.320313 103.644531 C 97.585938 102.160156 99.261719 101.519531 101.074219 101.144531 C 99.898438 100.214844 98.648438 99.539063 97.238281 99.433594 L 97.191406 99.152344 L 97.003906 98.746094 C 96.84375 98.542969 96.710938 98.359375 96.480469 98.222656 C 95.742188 97.710938 95.003906 97.191406 94.316406 96.609375 C 92.863281 95.277344 92.691406 93.011719 92.730469 91.175781 C 92.777344 89.996094 92.832031 88.824219 92.835938 87.640625 C 92.835938 85.625 92.714844 83.625 92.523438 81.617188 C 92.398438 80.347656 92.308594 79.0625 91.929688 77.839844 C 94.316406 77.496094 96.714844 77.140625 99.078125 76.625 C 100.921875 76.203125 102.742188 75.699219 104.421875 74.796875 C 105.214844 74.347656 105.90625 73.835938 106.546875 73.175781 L 106.910156 72.765625 C 107.496094 72.015625 107.886719 71.265625 108.152344 70.347656 C 108.289063 69.785156 108.355469 69.257813 108.367188 68.675781 L 108.308594 67.800781 L 107.722656 65.660156 C 107.550781 65.28125 107.371094 64.933594 107.15625 64.578125 L 106.4375 63.667969 C 106.164063 63.398438 105.894531 63.167969 105.589844 62.9375 L 104.644531 62.382813 C 104.074219 62.132813 103.53125 61.960938 102.921875 61.824219 C 100.449219 61.367188 97.925781 61.730469 95.503906 62.28125 C 92.363281 63.035156 89.347656 64.171875 86.234375 64.988281 C 85.476563 65.179688 84.714844 65.347656 83.945313 65.492188 C 81.777344 65.851563 79.601563 66.136719 77.402344 66.277344 C 76.113281 66.34375 74.84375 66.347656 73.554688 66.257813 C 72.804688 66.1875 72.089844 66.089844 71.347656 65.9375 C 70.359375 65.703125 69.378906 65.402344 68.515625 64.84375 C 67.894531 64.402344 67.527344 63.933594 67.4375 63.164063 C 67.382813 62.386719 67.585938 61.511719 68.011719 60.855469 C 68.851563 59.714844 70.304688 59.46875 71.636719 59.46875 L 81.058594 59.582031 C 83.191406 61.890625 89.589844 62.738281 95.492188 61.289063 C 94.582031 60.9375 93.839844 60.367188 93.269531 59.585938 C 98.890625 60.59375 99.523438 56.871094 104.050781 58.167969 C 103.242188 56.019531 100.179688 55.414063 97.101563 55.785156 L 98.613281 53.761719 C 90.5625 56.605469 89.539063 50.269531 82.089844 55.914063 C 78.609375 55.90625 75.132813 55.863281 71.65625 55.851563 C 71.035156 55.851563 70.433594 55.894531 69.820313 55.976563 C 69.128906 56.097656 68.496094 56.257813 67.835938 56.492188 C 67.332031 56.695313 66.867188 56.921875 66.398438 57.199219 C 66.058594 57.417969 65.753906 57.644531 65.445313 57.902344 C 65.148438 58.183594 64.890625 58.457031 64.632813 58.769531 C 64.390625 59.101563 64.191406 59.421875 63.996094 59.785156 C 63.820313 60.171875 63.6875 60.539063 63.570313 60.945313 C 63.476563 61.375 63.417969 61.777344 63.386719 62.214844 L 63.40625 63.113281 C 63.480469 63.773438 63.601563 64.378906 63.800781 65.011719 L 64.027344 65.601563 C 64.382813 66.34375 64.785156 66.917969 65.378906 67.480469 C 65.804688 67.847656 66.226563 68.128906 66.71875 68.390625 C 67.9375 68.984375 69.246094 69.289063 70.5625 69.5625 C 72.628906 69.960938 74.683594 70.128906 76.78125 70.132813 C 78.289063 70.121094 79.777344 70.027344 81.273438 69.855469 C 82.777344 69.671875 84.28125 69.433594 85.777344 69.171875 C 87.929688 68.785156 90.109375 68.351563 92.210938 67.714844 C 94.671875 66.953125 97.140625 66.011719 99.722656 65.742188 C 100.460938 65.6875 101.195313 65.667969 101.929688 65.785156 C 102.5625 65.90625 103.019531 66.097656 103.367188 66.660156 C 103.675781 67.234375 103.773438 67.878906 103.8125 68.519531 C 103.8125 69.035156 103.757813 69.421875 103.503906 69.867188 C 103.007813 70.554688 102.257813 70.878906 101.503906 71.183594 C 99.40625 71.996094 97.175781 72.449219 94.945313 72.6875 C 93.292969 72.855469 91.640625 72.964844 90.003906 73.269531 C 88.910156 72.722656 87.617188 72.671875 86.425781 72.613281 C 83.386719 72.460938 80.355469 72.460938 77.3125 72.5625 C 75.835938 72.617188 74.347656 72.695313 72.863281 72.792969 C 71.027344 72.910156 69.210938 72.945313 67.363281 72.878906 C 65.902344 72.8125 64.464844 72.675781 63.015625 72.464844 C 61.941406 72.289063 60.890625 72.074219 59.839844 71.804688 C 58.777344 71.519531 57.753906 71.191406 56.734375 70.800781 C 56.613281 70.136719 56.285156 69.53125 55.667969 69 C 57.675781 68.734375 58.839844 68.019531 59.429688 66.996094 C 57.796875 66.414063 56.839844 65.59375 56.5625 64.53125 C 58.746094 64.742188 58.117188 63.71875 59.253906 62.160156 C 57.0625 61.664063 58.460938 58.914063 54.59375 57.875 C 56.402344 57.566406 55.828125 56.660156 57.28125 56.324219 C 56.007813 54.371094 53.691406 53.402344 49.847656 53.863281 L 51.011719 51.855469 C 47.339844 53.675781 44.648438 48.96875 40.046875 54.5625 C 35.453125 48.96875 32.757813 53.675781 29.089844 51.855469 L 30.253906 53.863281 C 26.40625 53.402344 24.089844 54.371094 22.816406 56.324219 C 24.269531 56.660156 23.695313 57.566406 25.503906 57.875 C 21.640625 58.914063 23.035156 61.664063 20.847656 62.160156 C 21.980469 63.71875 21.351563 64.742188 23.535156 64.53125 C 23.253906 65.59375 22.300781 66.414063 20.667969 66.996094 C 21.253906 68.019531 22.421875 68.734375 24.429688 69 C 23.476563 69.820313 23.214844 70.820313 23.339844 71.933594 L 21.257813 70.175781 L 19.964844 69.253906 C 19.253906 68.710938 18.8125 67.71875 18.511719 66.898438 L 18.34375 66.367188 L 16.101563 59.003906 L 15.546875 58.121094 L 15.15625 57.847656 L 14.636719 57.679688 L 14.058594 57.679688 L 13.464844 57.871094 C 13.292969 56.464844 12.089844 55.792969 10.402344 56.394531 C 11.269531 56.679688 11.683594 57.269531 11.734375 57.996094 C 11.570313 58.066406 11.414063 58.140625 11.253906 58.242188 L 10.964844 58.480469 L 10.675781 58.898438 L 10.65625 59.003906 C 10.175781 58.488281 9.476563 58.5625 8.90625 59.09375 C 9.398438 59.136719 9.710938 59.367188 9.832031 59.730469 L 9.707031 59.820313 L 9.414063 60.222656 C 9.222656 60.609375 9.132813 60.9375 9.082031 61.363281 L 9.105469 61.976563 L 9.136719 62.074219 C 8.695313 62.308594 8.234375 62.484375 7.761719 62.621094 C 8.480469 62.914063 8.972656 63.371094 9.339844 63.921875 C 9.082031 64.019531 8.804688 64.21875 9.070313 65.375 C 9.207031 65.917969 9.378906 66.421875 9.625 66.933594 C 9.78125 67.226563 9.945313 67.476563 10.152344 67.742188 L 10.410156 68 L 10.730469 68.238281 C 11.226563 68.472656 11.792969 68.625 12.179688 69.035156 C 12.285156 69.160156 12.359375 69.328125 12.441406 69.46875 C 14.128906 72.390625 15.84375 75.296875 17.550781 78.210938 C 18.738281 80.230469 18.542969 85.734375 18.519531 88.066406 C 19.339844 87.972656 20.152344 87.613281 20.96875 86.976563 C 21.304688 89.035156 21.214844 91.308594 21.003906 93.640625 C 22.953125 92.707031 24.269531 91.53125 24.964844 90.109375 C 26.078125 90.785156 27.078125 90.589844 28.265625 90.246094 C 29.339844 89.917969 30.386719 89.539063 31.429688 89.132813 C 31.792969 89.960938 32.246094 90.683594 32.757813 91.34375 C 33.890625 90.476563 34.742188 89.386719 35.175781 87.96875 C 34.929688 91.667969 36.191406 94.398438 38.507813 96.980469 L 38.476563 97.984375 L 37.964844 101.59375 L 36.722656 106.304688 C 36.207031 107.914063 35.636719 109.511719 34.96875 111.066406 C 34.839844 111.363281 34.785156 111.613281 34.4375 111.667969 L 33.671875 111.628906 C 32.714844 111.605469 31.746094 111.652344 30.785156 111.710938 C 29.886719 111.769531 28.960938 111.828125 28.085938 112.046875 L 27.734375 112.179688 L 27.394531 112.390625 L 27.117188 112.644531 C 27.0625 112.726563 27.011719 112.804688 26.964844 112.886719 C 25.429688 112.914063 24.085938 113.925781 23.96875 115.441406 C 26.542969 113.691406 26.441406 115.503906 24.933594 117.5 C 27.121094 116.378906 27.796875 117.476563 26.933594 119.738281 C 27.371094 119 27.925781 118.980469 28.640625 119.355469 C 29.101563 119.761719 29.546875 120.035156 29.894531 120.109375 C 30.808594 120.28125 31.765625 120.257813 32.667969 120.035156 C 33.464844 119.824219 34.238281 119.535156 35.027344 119.304688 C 35.714844 119.105469 36.40625 118.933594 37.101563 118.777344 C 37.808594 118.625 38.457031 118.441406 39.121094 118.179688 L 40.003906 117.707031 L 40.683594 117.152344 L 41.171875 116.554688 C 41.34375 116.265625 41.472656 116 41.589844 115.691406 C 41.691406 115.367188 41.757813 115.035156 41.863281 114.714844 C 42.128906 113.953125 42.441406 113.214844 42.816406 112.503906 C 43.046875 112.097656 43.332031 111.746094 43.589844 111.359375 L 43.992188 110.722656 C 44.683594 109.628906 45.363281 108.527344 46.042969 107.421875 C 48.113281 105.5 50.535156 103.894531 53.507813 102.792969 C 53.113281 102.082031 52.539063 101.476563 51.566406 101.109375 C 53.210938 99.414063 55.191406 98.347656 57.519531 97.917969 C 57.191406 97.15625 56.628906 96.566406 55.839844 96.148438 C 58.089844 94.386719 60.53125 93.941406 63.128906 94.59375 C 63.203125 93.625 62.914063 92.691406 61.839844 91.835938 C 62.765625 91.546875 63.703125 91.328125 64.628906 91.179688 C 65.804688 93.238281 67.003906 95.289063 68.40625 97.199219 C 68.925781 97.886719 69.46875 98.582031 70.160156 99.105469 C 70.371094 99.277344 70.410156 99.367188 70.453125 99.640625 C 70.492188 100.5625 70.070313 101.421875 69.710938 102.242188 C 68.863281 104.160156 68.039063 106.082031 67.21875 108.007813 C 67.066406 108.226563 66.851563 108.449219 66.582031 108.484375 C 64.429688 108.597656 62.277344 108.699219 60.128906 108.808594 C 59.828125 108.824219 59.570313 108.917969 59.289063 109.039063 L 58.9375 109.28125 L 58.59375 109.71875 L 58.53125 109.976563 C 56.9375 109.839844 55.679688 110.976563 55.914063 112.433594 C 57.671875 111.078125 59.050781 111.089844 57.089844 114.433594 C 58.085938 113.773438 58.730469 113.605469 59.050781 113.980469 C 59.898438 114.984375 58.347656 115.144531 58.851563 116.492188 C 59.484375 115.589844 60.203125 115.25 61.089844 116.082031 C 61.511719 116.773438 62.214844 116.78125 62.9375 116.800781 C 63.835938 116.703125 64.695313 116.460938 65.5625 116.242188 C 66.367188 116.039063 67.171875 115.828125 67.976563 115.636719 C 68.359375 115.546875 68.746094 115.457031 69.136719 115.394531 C 69.671875 115.316406 70.121094 115.171875 70.609375 114.933594 L 71.09375 114.636719 C 71.636719 114.214844 72.015625 113.78125 72.394531 113.207031 C 72.761719 112.574219 73.0625 111.902344 73.386719 111.25 C 73.804688 110.402344 74.121094 109.492188 74.648438 108.707031 C 75.371094 107.636719 76.878906 106.621094 79.4375 105.351563 C 79.089844 104.78125 78.671875 104.285156 77.796875 104.300781 C 79.585938 102.148438 81.09375 101.828125 82.53125 102.019531 C 81.800781 100.917969 80.839844 100.1875 79.328125 100.324219 C 79.234375 99.59375 78.84375 98.917969 78.566406 98.246094 C 78.339844 97.617188 78.320313 96.917969 78.394531 96.257813 C 78.441406 95.933594 78.515625 95.652344 78.636719 95.347656 C 79.019531 94.507813 79.460938 93.699219 79.886719 92.882813 C 80.367188 93.632813 80.839844 94.371094 81.335938 94.960938 C 83.265625 97.257813 85.371094 99.765625 87.628906 101.773438 L 87.617188 101.792969 C 86.582031 104.644531 85.546875 107.511719 84.40625 110.324219 C 84.28125 110.628906 84.152344 110.929688 84.019531 111.226563 C 83.765625 111.742188 83.378906 112.078125 82.792969 112.082031 C 82.257813 112.085938 81.726563 112.089844 81.203125 112.089844 Z M 81.203125 112.089844 "/>
<path style=" stroke:none;fill-rule:evenodd;fill:rgb(95.3125%,56.443787%,0%);fill-opacity:1;" d="M 42.898438 78.457031 C 43.441406 78.367188 43.757813 77.328125 43.757813 77.328125 C 43.757813 77.328125 43.847656 76.375 43.847656 75.832031 C 43.847656 75.289063 45.707031 74.292969 45.707031 74.292969 L 45.929688 71.035156 C 45.929688 71.035156 48.917969 67.234375 49.730469 66.285156 C 50.546875 65.335938 49.914063 65.109375 49.914063 65.109375 C 49.914063 65.109375 49.550781 64.972656 49.144531 64.070313 C 48.734375 63.164063 49.144531 62.984375 49.503906 62.621094 C 51.378906 60.746094 50.152344 57.808594 47.242188 58.863281 C 46.746094 59.046875 46.113281 58.640625 45.753906 58.414063 C 45.386719 58.1875 44.347656 58.1875 44.347656 58.1875 L 44.164063 57.734375 L 43.171875 57.371094 L 42.535156 57.507813 L 41.953125 56.964844 L 40.046875 59.046875 L 38.148438 56.964844 L 37.558594 57.507813 L 36.925781 57.371094 L 35.929688 57.734375 L 35.753906 58.1875 C 35.753906 58.1875 34.714844 58.1875 34.347656 58.414063 C 33.984375 58.640625 33.351563 59.046875 32.855469 58.863281 C 29.945313 57.808594 28.714844 60.746094 30.589844 62.621094 C 30.957031 62.984375 31.359375 63.164063 30.957031 64.070313 C 30.546875 64.972656 30.183594 65.109375 30.183594 65.109375 C 30.183594 65.109375 29.550781 65.335938 30.367188 66.285156 C 31.179688 67.234375 34.167969 71.035156 34.167969 71.035156 L 34.390625 74.292969 C 34.390625 74.292969 36.246094 75.289063 36.246094 75.832031 C 36.246094 76.375 36.339844 77.328125 36.339844 77.328125 C 36.339844 77.328125 36.65625 78.367188 37.203125 78.457031 C 38.835938 78.730469 41.265625 78.730469 42.898438 78.457031 Z M 42.898438 78.457031 "/>
<path style=" stroke:none;fill-rule:evenodd;fill:rgb(0%,33.714294%,59.568787%);fill-opacity:1;" d="M 33.84375 63.117188 L 38.046875 63.117188 L 38.046875 65.5625 Z M 40.550781 72.617188 L 40.550781 74.144531 L 41.558594 75 L 43.546875 74.917969 L 43.589844 75.914063 L 41.40625 76.007813 L 41.0625 75.886719 L 40.046875 75.027344 L 39.035156 75.886719 L 38.691406 76.007813 L 36.511719 75.914063 L 36.550781 74.917969 L 38.539063 75 L 39.546875 74.144531 L 39.546875 72.617188 L 36.5625 70.175781 L 42.058594 70.175781 C 42.058594 67.8125 42.050781 65.472656 42.050781 63.117188 L 46.253906 63.117188 L 42.902344 65.066406 C 42.972656 66.769531 43.183594 68.472656 43.53125 70.175781 Z M 40.550781 72.617188 "/>
<path style=" stroke:none;fill-rule:evenodd;fill:rgb(95.3125%,56.443787%,0%);fill-opacity:1;" d="M 45.003906 88.214844 L 44.941406 88.316406 C 45.117188 92.582031 43.246094 95.550781 40.046875 98.550781 C 39.910156 98.421875 39.777344 98.292969 39.644531 98.164063 C 39.214844 104.261719 36.039063 111.671875 35.808594 112.046875 C 35.5625 112.453125 35.003906 112.949219 34.101563 112.835938 C 33.207031 112.722656 29.425781 112.902344 28.4375 113.171875 C 27.445313 113.441406 27.515625 115.105469 27.515625 115.105469 C 27.515625 115.105469 27.832031 114.8125 28.253906 114.8125 C 28.683594 114.8125 28.929688 115.0625 28.929688 115.601563 C 28.929688 116.140625 28.234375 116.925781 28.277344 117.195313 C 28.328125 117.464844 28.570313 117.535156 28.863281 117.242188 C 29.15625 116.949219 30.121094 116.65625 30.121094 116.65625 C 30.121094 116.65625 30.257813 117.308594 30.414063 117.78125 C 30.570313 118.253906 30.09375 118.945313 30.09375 118.945313 C 30.09375 118.945313 30.878906 119.132813 31.890625 118.992188 C 32.90625 118.855469 33.917969 118.253906 37.144531 117.5625 C 40.371094 116.871094 40.464844 115.351563 40.648438 114.660156 C 40.835938 113.96875 41.660156 111.894531 42.261719 111.203125 C 42.859375 110.511719 50.40625 97.890625 51.253906 96.613281 C 52.089844 95.335938 51.6875 94.09375 51.6875 94.09375 L 51.253906 92.300781 L 73.535156 85.796875 L 72.402344 83.277344 C 72.402344 83.277344 72.804688 82.472656 74.59375 84.191406 C 76.382813 85.90625 80.511719 91.9375 81.644531 93.472656 C 82.777344 95.003906 87.746094 100.339844 88.441406 100.925781 C 89.136719 101.507813 88.734375 102.167969 88.734375 102.167969 C 88.734375 102.167969 85.738281 110.460938 85.007813 111.886719 C 84.277344 113.308594 82.847656 113.261719 82.847656 113.261719 C 82.847656 113.261719 78.453125 113.292969 77.609375 113.261719 C 76.769531 113.226563 76.503906 113.578125 76.617188 113.816406 C 76.734375 114.050781 76.902344 114.355469 76.519531 114.675781 C 76.132813 114.992188 76.085938 115.734375 76.085938 115.734375 C 76.085938 115.734375 76.617188 115.144531 77.289063 115.179688 C 77.964844 115.214844 77.832031 116.121094 77.355469 116.726563 C 76.886719 117.335938 77.761719 117.46875 77.761719 117.46875 C 77.761719 117.46875 78.128906 116.644531 79.171875 117.335938 C 80.214844 118.023438 78.878906 119.195313 78.878906 119.195313 C 78.878906 119.195313 83.503906 118.1875 85.933594 117.535156 C 88.367188 116.882813 88.542969 115.636719 88.542969 115.636719 C 88.542969 115.636719 90.210938 111.839844 91.035156 109.765625 C 91.867188 107.691406 95.128906 101.761719 95.78125 100.632813 C 96.429688 99.507813 95.839844 99.210938 95.839844 99.210938 C 95.839844 99.210938 93.761719 97.785156 93.289063 97.253906 C 92.8125 96.71875 91.335938 95.175781 91.570313 90.730469 C 91.804688 86.28125 91.507813 83.257813 91.214844 80.351563 C 90.976563 78.039063 90.398438 77.15625 90.179688 76.890625 C 90.171875 76.882813 90.183594 76.878906 90.191406 76.878906 C 90.757813 76.820313 92.066406 76.644531 94.890625 76.203125 C 99.683594 75.453125 102.425781 74.640625 104.191406 73.566406 C 106.480469 72.171875 107.683594 69.929688 106.992188 67.195313 C 105.949219 63.042969 102.507813 62.460938 98.554688 62.925781 C 93.554688 63.515625 88.828125 65.921875 83.667969 66.730469 C 79.121094 67.445313 72.675781 68.257813 68.5625 66.226563 C 66.507813 65.214844 65.816406 63.617188 66.503906 61.320313 C 67.191406 59.019531 69.421875 58.265625 71.644531 58.292969 L 81.605469 58.410156 L 81.644531 57.09375 C 81.644531 57.09375 72.839844 57.027344 71.503906 57.027344 C 67.398438 57.027344 63.804688 59.457031 64.695313 63.804688 C 65.34375 66.980469 67.484375 67.675781 70.28125 68.296875 C 72.921875 68.886719 76.921875 69.296875 82.089844 68.5625 C 85.230469 68.117188 87.488281 67.6875 90.210938 67.050781 C 92.925781 66.410156 96.960938 64.640625 100.238281 64.53125 C 102.722656 64.445313 104.382813 64.921875 104.871094 67.457031 C 105.242188 69.375 104.820313 70.832031 103.003906 71.796875 C 101.554688 72.5625 99.191406 73.214844 97.144531 73.578125 C 94.6875 74.015625 92.21875 73.980469 89.757813 74.519531 C 89.757813 74.519531 89.3125 73.949219 87.03125 73.824219 C 84.894531 73.703125 80.253906 73.472656 72.941406 73.96875 C 67.492188 74.335938 61.886719 73.976563 56.738281 72.066406 C 56.226563 75.605469 51.878906 80.222656 52.890625 83.683594 C 51.722656 83.414063 50.582031 82.945313 49.488281 82.042969 C 49.984375 86.5625 48.941406 89.277344 47.339844 91.34375 C 46.273438 90.53125 45.460938 89.515625 45.003906 88.214844 Z M 45.003906 88.214844 "/>
<path style=" stroke:none;fill-rule:evenodd;fill:rgb(95.3125%,56.443787%,0%);fill-opacity:1;" d="M 65.894531 91.023438 C 67.023438 93.007813 69.519531 97.226563 70.886719 98.179688 C 72.15625 99.0625 71.53125 101.027344 71.050781 102.117188 C 70.105469 104.257813 69.175781 106.40625 68.265625 108.566406 C 68.265625 108.566406 67.664063 109.601563 66.679688 109.65625 C 65.695313 109.710938 60.175781 109.984375 60.175781 109.984375 C 60.175781 109.984375 59.496094 110.039063 59.667969 110.554688 C 59.839844 111.070313 59.210938 112.113281 59.210938 112.113281 C 59.210938 112.113281 60.214844 111.230469 60.671875 111.929688 C 61.136719 112.628906 60.585938 113.183594 60.585938 113.183594 C 60.585938 113.183594 60.15625 113.738281 60.882813 113.882813 C 61.609375 114.027344 61.980469 113.449219 61.980469 113.449219 C 61.980469 113.449219 62.484375 113.710938 62.460938 114.253906 C 62.429688 114.796875 62.113281 115.046875 62.113281 115.046875 C 62.113281 115.046875 61.460938 116.054688 63.957031 115.429688 C 66.453125 114.808594 68.167969 114.34375 69.039063 114.21875 C 69.90625 114.09375 70.933594 113.628906 71.6875 112.042969 C 72.441406 110.457031 75.523438 104.304688 76.488281 102.664063 C 76.890625 101.976563 78.140625 101.320313 78.175781 100.652344 C 78.210938 99.984375 77.402344 98.859375 77.265625 97.976563 C 77.140625 97.144531 77.089844 95.9375 77.558594 94.882813 C 78.070313 93.734375 78.695313 92.648438 79.148438 91.75 C 78.664063 91.035156 78.167969 90.375 77.632813 89.886719 C 75.925781 88.332031 73.214844 87.992188 69.039063 89.417969 C 70.089844 89.683594 70.503906 90.347656 70.636719 91.1875 C 69.054688 90.933594 67.476563 90.875 65.894531 91.023438 Z M 65.894531 91.023438 "/>
<path style=" stroke:none;fill-rule:evenodd;fill:rgb(95.3125%,56.443787%,0%);fill-opacity:1;" d="M 19.265625 70.207031 C 18.210938 69.480469 17.480469 67.585938 17.3125 67.027344 C 17.144531 66.46875 14.96875 59.328125 14.96875 59.328125 C 14.96875 59.328125 14.746094 58.601563 13.964844 58.9375 C 13.183594 59.273438 12.128906 59.105469 12.128906 59.105469 C 12.128906 59.105469 11.460938 59.328125 11.902344 59.832031 C 12.347656 60.332031 12.964844 60.777344 12.964844 60.777344 C 12.964844 60.777344 12.347656 61.671875 11.847656 61.671875 C 11.378906 61.671875 10.570313 61.1875 10.554688 60.804688 C 10.554688 60.765625 10.582031 60.691406 10.570313 60.664063 C 10.53125 60.539063 9.757813 61.753906 10.785156 62.730469 C 11.902344 63.792969 11.789063 64.183594 11.789063 64.183594 C 11.308594 64.507813 10.777344 64.761719 10.171875 64.90625 C 10.171875 64.90625 10.5625 66.972656 11.511719 67.304688 C 12.464844 67.640625 13.078125 68.144531 13.296875 68.589844 C 13.519531 69.035156 24.734375 88.113281 24.734375 88.113281 C 24.734375 88.113281 25.289063 89.453125 26.628906 89.398438 C 27.425781 89.363281 29.476563 88.625 31.015625 88.027344 C 30.527344 86.445313 30.339844 84.511719 30.609375 82.042969 C 29.519531 82.945313 28.378906 83.414063 27.207031 83.683594 C 28.070313 80.726563 25.019531 76.921875 23.792969 73.667969 C 22.332031 72.449219 20.832031 71.277344 19.265625 70.207031 Z M 19.265625 70.207031 "/>
<path style=" stroke:none;fill-rule:evenodd;fill:rgb(0%,33.714294%,59.568787%);fill-opacity:1;" d="M 277.878906 66.820313 C 287.976563 69.96875 298.9375 70.6875 309.476563 68.902344 C 315.355469 67.984375 320.671875 65.433594 324.621094 61.6875 C 328.511719 57.476563 330.265625 52.171875 329.492188 46.890625 C 328.753906 41.609375 325.546875 36.800781 320.585938 33.453125 C 317.40625 31.523438 313.902344 29.960938 310.191406 28.820313 C 307.011719 27.828125 303.894531 26.738281 300.804688 25.546875 C 299.234375 24.953125 297.777344 24.160156 296.503906 23.21875 C 294.808594 21.953125 293.921875 20.121094 294.15625 18.234375 C 294.421875 16.351563 295.609375 14.640625 297.421875 13.523438 C 299.234375 12.433594 301.339844 11.742188 303.539063 11.519531 C 307.011719 11.195313 310.488281 11.292969 313.902344 11.839844 C 317.140625 12.457031 320.257813 13.351563 323.285156 14.492188 L 325.039063 2.570313 L 323.433594 2.195313 C 317.40625 0.609375 311.085938 -0.0820313 304.785156 0.140625 C 299.175781 0.191406 293.617188 1.253906 288.546875 3.261719 C 283.109375 5.394531 279.066406 9.410156 277.554688 14.269531 C 275.421875 20.167969 276.929688 26.589844 281.5625 31.375 C 284.234375 33.777344 287.414063 35.734375 290.976563 37.097656 L 302.765625 41.414063 C 304.878906 42.15625 306.867188 43.121094 308.710938 44.261719 C 310.460938 45.351563 311.644531 46.992188 312.003906 48.800781 C 312.355469 50.609375 311.851563 52.441406 310.605469 53.953125 C 309.121094 55.714844 306.953125 57.003906 304.460938 57.597656 C 300.359375 58.589844 296.023438 58.714844 291.839844 57.96875 C 287.53125 57.152344 283.34375 55.886719 279.425781 54.203125 Z M 206.65625 0.757813 L 206.65625 39.878906 L 206.761719 46.289063 C 206.789063 50.542969 207.800781 54.726563 209.714844 58.585938 C 212.085938 63.089844 216.285156 66.554688 221.390625 68.1875 C 230.753906 71.207031 240.890625 71.304688 250.304688 68.433594 C 255.679688 66.902344 260.226563 63.535156 263.046875 59.007813 C 264.535156 56.308594 265.492188 53.390625 265.921875 50.371094 C 266.53125 45.695313 266.824219 40.96875 266.742188 36.265625 L 266.742188 0.757813 L 252.5625 0.757813 L 252.5625 41.816406 L 252.507813 46.765625 C 252.535156 49.066406 252.214844 51.34375 251.550781 53.542969 C 250.488281 57.183594 247.695313 60.175781 243.945313 61.660156 C 240.566406 62.875 235.085938 63.070313 231.574219 62.203125 C 228.964844 61.636719 226.628906 60.347656 224.84375 58.492188 C 222.769531 56.09375 221.519531 53.171875 221.226563 50.128906 C 221.011719 47.679688 220.90625 45.230469 220.933594 42.78125 L 220.933594 0.757813 Z M 133.003906 0.734375 L 133.003906 69.105469 L 142.175781 69.105469 L 142.175781 18.386719 L 174.921875 65.273438 C 176.472656 67.5 179.285156 69.105469 181.988281 69.105469 L 192.808594 69.105469 L 192.808594 0.734375 L 183.21875 0.757813 L 183.21875 50.714844 L 151.488281 4.902344 C 149.890625 2.59375 147.078125 0.753906 143.503906 0.75 Z M 316.285156 89.804688 L 320.53125 101.664063 L 320.480469 101.765625 C 320.324219 102.257813 320.117188 102.726563 319.859375 103.164063 C 319.675781 103.503906 319.390625 103.785156 319.054688 103.96875 C 318.71875 104.148438 318.355469 104.226563 317.964844 104.199219 C 317.65625 104.175781 317.34375 104.125 317.035156 104.070313 L 316.878906 105.859375 C 317.191406 105.9375 317.527344 105.988281 317.839844 106.011719 C 319.289063 106.195313 320.714844 105.519531 321.488281 104.277344 C 322.058594 103.320313 322.523438 102.3125 322.886719 101.25 L 327.003906 89.804688 L 324.878906 89.804688 L 321.695313 98.710938 L 318.671875 89.804688 Z M 305.929688 91.59375 L 308.515625 91.59375 L 308.515625 97.417969 C 308.515625 97.625 308.515625 97.832031 308.546875 98.039063 C 308.546875 98.480469 308.59375 98.945313 308.699219 99.386719 C 308.855469 100.164063 309.371094 100.808594 310.070313 101.144531 C 310.871094 101.507813 311.753906 101.636719 312.632813 101.535156 C 313.074219 101.457031 313.515625 101.351563 313.953125 101.199219 L 313.953125 99.308594 C 313.800781 99.386719 313.671875 99.410156 313.515625 99.464844 C 312.96875 99.671875 312.378906 99.695313 311.804688 99.539063 C 311.496094 99.4375 311.234375 99.230469 311.054688 98.945313 C 310.925781 98.710938 310.847656 98.480469 310.820313 98.21875 C 310.769531 97.78125 310.742188 97.316406 310.742188 96.875 L 310.742188 91.59375 L 313.746094 91.59375 L 313.746094 89.804688 L 310.742188 89.804688 L 310.742188 86.75 L 308.515625 87.5 L 308.515625 89.804688 L 305.929688 89.804688 Z M 301.296875 101.300781 L 303.597656 101.300781 L 303.597656 89.78125 L 301.296875 89.78125 Z M 301.296875 87.242188 L 303.597656 87.242188 L 303.597656 84.78125 L 301.296875 84.78125 Z M 291.796875 100.808594 L 291.867188 100.835938 C 292.414063 101.121094 293.007813 101.328125 293.605469 101.429688 C 294.742188 101.636719 295.90625 101.507813 296.96875 101.042969 C 298.109375 100.550781 298.886719 99.488281 298.964844 98.273438 C 299.066406 97.46875 298.835938 96.640625 298.34375 96.019531 C 298.03125 95.707031 297.722656 95.425781 297.335938 95.21875 C 296.683594 94.855469 296.039063 94.492188 295.363281 94.15625 C 295.105469 94 294.847656 93.84375 294.613281 93.664063 C 294.355469 93.484375 294.199219 93.171875 294.171875 92.859375 C 294.148438 92.523438 294.253906 92.214844 294.484375 91.980469 C 294.691406 91.773438 294.976563 91.617188 295.261719 91.539063 C 295.835938 91.4375 296.398438 91.4375 296.945313 91.566406 C 297.410156 91.695313 297.878906 91.851563 298.316406 92.03125 L 298.523438 90.089844 C 298.132813 89.960938 297.722656 89.859375 297.304688 89.78125 C 296.320313 89.546875 295.285156 89.574219 294.304688 89.804688 C 293.320313 90.066406 292.515625 90.738281 292.101563 91.644531 C 291.6875 92.550781 291.738281 93.636719 292.257813 94.519531 C 292.515625 94.90625 292.851563 95.242188 293.265625 95.5 C 293.863281 95.890625 294.511719 96.253906 295.15625 96.589844 C 295.492188 96.769531 295.835938 96.976563 296.140625 97.210938 C 296.378906 97.390625 296.53125 97.652344 296.585938 97.9375 C 296.632813 98.21875 296.554688 98.53125 296.398438 98.765625 C 296.171875 99.101563 295.835938 99.332031 295.46875 99.4375 C 294.796875 99.59375 294.09375 99.59375 293.421875 99.386719 C 292.90625 99.230469 292.386719 98.996094 291.894531 98.710938 Z M 283.246094 89.804688 L 283.246094 101.300781 L 285.472656 101.300781 L 285.472656 96.277344 C 285.503906 95.839844 285.527344 95.425781 285.550781 95.007813 C 285.628906 94.179688 285.941406 93.40625 286.460938 92.757813 C 287.027344 92.03125 287.933594 91.644531 288.867188 91.746094 C 289.152344 91.800781 289.433594 91.851563 289.71875 91.929688 L 289.71875 89.910156 C 289.589844 89.859375 289.464844 89.832031 289.304688 89.78125 C 288.113281 89.496094 286.847656 89.882813 285.992188 90.789063 C 285.734375 91.074219 285.503906 91.386719 285.296875 91.722656 L 285.296875 89.804688 Z M 272.789063 96.199219 L 280.921875 96.199219 L 280.921875 95.761719 C 280.921875 94.855469 280.8125 93.972656 280.585938 93.09375 C 280.296875 92.03125 279.648438 91.074219 278.769531 90.402344 C 278.171875 89.960938 277.449219 89.703125 276.695313 89.625 C 274.339844 89.210938 272.011719 90.503906 271.078125 92.730469 C 270.460938 94.285156 270.351563 95.992188 270.847656 97.625 C 271.257813 99.253906 272.449219 100.574219 274.054688 101.171875 C 276.023438 101.820313 278.171875 101.664063 280.011719 100.730469 L 280.011719 98.632813 L 279.597656 98.84375 C 278.664063 99.359375 277.601563 99.617188 276.546875 99.644531 C 274.835938 99.671875 273.304688 98.503906 272.890625 96.824219 C 272.839844 96.613281 272.8125 96.40625 272.789063 96.199219 Z M 272.839844 94.414063 C 272.921875 93.972656 273.046875 93.558594 273.226563 93.144531 C 273.617188 92.265625 274.390625 91.617188 275.324219 91.386719 C 276.488281 91.125 277.710938 91.695313 278.222656 92.757813 C 278.484375 93.222656 278.613281 93.714844 278.640625 94.234375 L 278.640625 94.414063 Z M 258.964844 89.804688 L 263.078125 101.300781 L 265.613281 101.300781 L 269.757813 89.804688 L 267.53125 89.804688 L 264.449219 98.765625 L 261.421875 89.804688 Z M 254.351563 101.300781 L 256.632813 101.300781 L 256.632813 89.78125 L 254.351563 89.78125 Z M 254.351563 87.242188 L 256.632813 87.242188 L 256.632813 84.78125 L 254.351563 84.78125 Z M 241.898438 89.804688 L 241.898438 101.300781 L 244.152344 101.300781 L 244.152344 96.824219 C 244.128906 96.148438 244.152344 95.476563 244.230469 94.800781 C 244.28125 94.234375 244.4375 93.664063 244.722656 93.144531 C 245.34375 91.980469 246.6875 91.359375 247.984375 91.667969 C 248.683594 91.800781 249.253906 92.265625 249.511719 92.914063 C 249.71875 93.378906 249.796875 93.871094 249.820313 94.363281 L 249.820313 101.300781 L 252.023438 101.300781 L 252.023438 94.027344 C 251.996094 93.328125 251.867188 92.601563 251.585938 91.953125 C 251.324219 91.28125 250.859375 90.710938 250.261719 90.324219 C 249.335938 89.726563 248.191406 89.496094 247.078125 89.703125 C 245.78125 89.832031 244.59375 90.582031 243.921875 91.722656 L 243.921875 89.804688 Z M 227.503906 85.6875 L 227.503906 94.726563 C 227.476563 95.554688 227.554688 96.355469 227.683594 97.160156 C 227.945313 98.738281 228.929688 100.109375 230.351563 100.859375 C 231.621094 101.484375 233.046875 101.742188 234.441406 101.558594 C 237.058594 101.378906 239.15625 99.359375 239.4375 96.742188 C 239.570313 95.734375 239.59375 94.699219 239.570313 93.6875 L 239.570313 85.6875 L 237.289063 85.6875 L 237.289063 93.714844 C 237.289063 94.597656 237.238281 95.5 237.136719 96.40625 C 237.085938 96.925781 236.902344 97.445313 236.644531 97.910156 C 236.382813 98.402344 235.996094 98.816406 235.503906 99.101563 C 234.441406 99.644531 233.171875 99.695313 232.0625 99.230469 C 231.363281 98.972656 230.765625 98.425781 230.460938 97.753906 C 230.171875 97.132813 229.988281 96.460938 229.9375 95.785156 C 229.910156 94.933594 229.886719 94.078125 229.886719 93.222656 L 229.886719 85.6875 Z M 212.488281 101.300781 L 214.738281 101.300781 L 214.738281 84.523438 L 212.488281 84.523438 Z M 201.769531 90.789063 L 201.871094 92.757813 L 201.976563 92.679688 C 202.753906 92.03125 203.714844 91.644531 204.71875 91.566406 C 205.316406 91.515625 205.9375 91.59375 206.507813 91.773438 C 207.179688 92.007813 207.695313 92.550781 207.878906 93.222656 C 207.929688 93.558594 207.980469 93.898438 207.980469 94.234375 C 207.257813 94.207031 206.507813 94.207031 205.753906 94.234375 C 204.589844 94.257813 203.425781 94.542969 202.363281 95.0625 C 201.277344 95.578125 200.578125 96.640625 200.503906 97.859375 C 200.449219 99.050781 201.015625 100.1875 202.054688 100.835938 C 202.828125 101.277344 203.734375 101.484375 204.640625 101.457031 C 205.679688 101.484375 206.660156 101.121094 207.4375 100.449219 C 207.722656 100.1875 207.960938 99.902344 208.164063 99.59375 L 208.164063 101.300781 L 210.15625 101.300781 L 210.15625 94.128906 C 210.15625 93.535156 210.078125 92.9375 209.925781 92.34375 C 209.664063 91.332031 208.941406 90.503906 207.980469 90.089844 C 206.609375 89.597656 205.132813 89.519531 203.734375 89.882813 C 203.035156 90.039063 202.363281 90.347656 201.769531 90.789063 Z M 208.035156 95.96875 C 208.035156 96.484375 207.980469 97.003906 207.851563 97.519531 C 207.644531 98.296875 207.152344 98.945313 206.429688 99.308594 C 205.628906 99.695313 204.695313 99.722656 203.863281 99.410156 C 203.585938 99.308594 203.320313 99.101563 203.140625 98.84375 C 202.828125 98.351563 202.828125 97.730469 203.113281 97.238281 C 203.269531 96.898438 203.527344 96.640625 203.839844 96.484375 C 204.304688 96.253906 204.824219 96.097656 205.339844 96.046875 C 206.222656 95.941406 207.128906 95.914063 208.035156 95.96875 Z M 188.070313 89.804688 L 188.070313 101.300781 L 190.324219 101.300781 L 190.324219 96.824219 C 190.296875 96.148438 190.324219 95.476563 190.402344 94.800781 C 190.425781 94.234375 190.609375 93.664063 190.867188 93.144531 C 191.515625 91.980469 192.859375 91.359375 194.15625 91.667969 C 194.828125 91.800781 195.425781 92.265625 195.683594 92.914063 C 195.863281 93.378906 195.96875 93.871094 195.96875 94.363281 L 195.96875 101.300781 L 198.171875 101.300781 L 198.171875 94.027344 C 198.171875 93.328125 198.011719 92.601563 197.730469 91.953125 C 197.46875 91.28125 197.03125 90.710938 196.433594 90.324219 C 195.476563 89.726563 194.339844 89.496094 193.253906 89.703125 C 191.929688 89.832031 190.765625 90.582031 190.066406 91.722656 L 190.066406 89.804688 Z M 174.039063 95.605469 C 173.988281 98.21875 175.644531 100.574219 178.15625 101.351563 C 180.640625 102.128906 183.359375 101.144531 184.78125 98.972656 C 185.613281 97.625 185.898438 96.070313 185.636719 94.519531 C 185.429688 92.34375 183.953125 90.503906 181.882813 89.804688 C 179.296875 88.898438 176.421875 89.882813 174.945313 92.1875 C 174.347656 93.222656 174.039063 94.414063 174.039063 95.605469 Z M 176.394531 95.632813 C 176.394531 94.726563 176.628906 93.84375 177.046875 93.066406 C 177.636719 91.953125 178.828125 91.308594 180.070313 91.386719 C 181.3125 91.4375 182.425781 92.214844 182.894531 93.378906 C 183.488281 94.726563 183.515625 96.277344 182.945313 97.652344 C 182.453125 98.816406 181.367188 99.617188 180.097656 99.722656 C 178.441406 99.800781 176.964844 98.6875 176.574219 97.054688 C 176.472656 96.589844 176.394531 96.097656 176.394531 95.632813 Z M 169.429688 101.300781 L 171.710938 101.300781 L 171.710938 89.78125 L 169.429688 89.78125 Z M 169.429688 87.242188 L 171.710938 87.242188 L 171.710938 84.78125 L 169.429688 84.78125 Z M 159.074219 91.59375 L 161.6875 91.59375 L 161.6875 97.417969 C 161.6875 97.625 161.6875 97.832031 161.6875 98.039063 C 161.6875 98.480469 161.742188 98.945313 161.84375 99.386719 C 162.023438 100.164063 162.515625 100.808594 163.214844 101.144531 C 164.019531 101.507813 164.925781 101.636719 165.777344 101.535156 C 166.246094 101.457031 166.683594 101.351563 167.101563 101.199219 L 167.101563 99.308594 C 166.96875 99.386719 166.816406 99.410156 166.683594 99.464844 C 166.140625 99.671875 165.519531 99.695313 164.976563 99.539063 C 164.664063 99.4375 164.382813 99.230469 164.226563 98.945313 C 164.097656 98.710938 164.019531 98.480469 163.992188 98.21875 C 163.941406 97.78125 163.914063 97.316406 163.914063 96.875 L 163.914063 91.59375 L 166.921875 91.59375 L 166.921875 89.804688 L 163.890625 89.804688 L 163.890625 86.75 L 161.664063 87.5 L 161.664063 89.804688 L 159.074219 89.804688 Z M 148.898438 90.789063 L 148.976563 92.757813 L 149.078125 92.679688 C 149.855469 92.03125 150.8125 91.644531 151.824219 91.566406 C 152.421875 91.515625 153.039063 91.59375 153.609375 91.773438 C 154.285156 92.007813 154.800781 92.550781 154.984375 93.222656 C 155.0625 93.558594 155.089844 93.898438 155.113281 94.234375 C 154.363281 94.207031 153.609375 94.207031 152.859375 94.234375 C 151.695313 94.257813 150.53125 94.542969 149.46875 95.0625 C 148.40625 95.578125 147.679688 96.640625 147.628906 97.859375 C 147.550781 99.050781 148.148438 100.1875 149.15625 100.835938 C 149.933594 101.277344 150.839844 101.484375 151.746094 101.457031 C 152.78125 101.484375 153.765625 101.121094 154.546875 100.449219 C 154.828125 100.1875 155.0625 99.902344 155.265625 99.59375 L 155.265625 101.300781 L 157.261719 101.300781 L 157.261719 94.128906 C 157.261719 93.535156 157.183594 92.9375 157.027344 92.34375 C 156.769531 91.332031 156.046875 90.503906 155.089844 90.089844 C 153.738281 89.597656 152.238281 89.519531 150.867188 89.882813 C 150.140625 90.039063 149.46875 90.347656 148.898438 90.789063 Z M 155.136719 95.96875 C 155.136719 96.484375 155.089844 97.003906 154.960938 97.519531 C 154.777344 98.296875 154.257813 98.945313 153.53125 99.308594 C 152.730469 99.695313 151.796875 99.722656 150.96875 99.410156 C 150.683594 99.308594 150.425781 99.101563 150.246094 98.84375 C 149.933594 98.351563 149.933594 97.730469 150.21875 97.238281 C 150.378906 96.898438 150.632813 96.640625 150.96875 96.484375 C 151.433594 96.253906 151.925781 96.097656 152.445313 96.046875 C 153.351563 95.941406 154.230469 95.914063 155.136719 95.96875 Z M 133.003906 101.300781 L 135.175781 101.300781 L 135.175781 88.742188 L 142.378906 101.300781 L 145.300781 101.300781 L 145.300781 85.6875 L 143.097656 85.6875 L 143.097656 98.066406 L 136.054688 85.6875 L 133.003906 85.6875 Z M 257.226563 121.417969 L 265.382813 121.417969 L 265.355469 120.949219 C 265.382813 120.070313 265.277344 119.191406 265.019531 118.308594 C 264.734375 117.25 264.113281 116.289063 263.234375 115.589844 C 262.613281 115.175781 261.914063 114.917969 261.160156 114.839844 C 258.78125 114.425781 256.449219 115.71875 255.546875 117.949219 C 254.894531 119.5 254.816406 121.210938 255.285156 122.839844 C 255.722656 124.472656 256.914063 125.792969 258.496094 126.386719 C 260.464844 127.035156 262.613281 126.855469 264.476563 125.949219 L 264.476563 123.824219 L 264.035156 124.058594 C 263.101563 124.574219 262.066406 124.835938 261.007813 124.859375 C 259.269531 124.886719 257.769531 123.722656 257.355469 122.039063 C 257.304688 121.832031 257.253906 121.625 257.226563 121.417969 Z M 257.304688 119.628906 C 257.355469 119.191406 257.484375 118.777344 257.671875 118.363281 C 258.085938 117.480469 258.835938 116.835938 259.761719 116.601563 C 260.953125 116.34375 262.144531 116.886719 262.6875 117.972656 C 262.921875 118.4375 263.078125 118.929688 263.101563 119.449219 L 263.101563 119.628906 Z M 247.285156 115.023438 L 247.285156 126.515625 L 249.511719 126.515625 L 249.511719 121.46875 C 249.535156 121.054688 249.5625 120.640625 249.589844 120.199219 C 249.664063 119.398438 249.976563 118.621094 250.46875 117.972656 C 251.0625 117.25 251.96875 116.859375 252.902344 116.964844 C 253.1875 117.015625 253.472656 117.066406 253.757813 117.144531 L 253.757813 115.125 C 253.628906 115.074219 253.496094 115.023438 253.34375 114.996094 C 252.152344 114.710938 250.882813 115.097656 250.027344 115.980469 C 249.769531 116.289063 249.535156 116.601563 249.328125 116.9375 L 249.328125 115.023438 Z M 233.253906 120.820313 C 233.199219 123.4375 234.882813 125.765625 237.367188 126.570313 C 239.851563 127.34375 242.570313 126.363281 244.023438 124.1875 C 244.824219 122.839844 245.132813 121.261719 244.851563 119.734375 C 244.644531 117.558594 243.171875 115.71875 241.097656 115.023438 C 238.507813 114.117188 235.632813 115.097656 234.15625 117.378906 C 233.5625 118.4375 233.277344 119.628906 233.253906 120.820313 Z M 235.605469 120.847656 C 235.605469 119.941406 235.839844 119.0625 236.253906 118.257813 C 236.851563 117.171875 238.039063 116.523438 239.285156 116.601563 C 240.527344 116.652344 241.640625 117.429688 242.105469 118.59375 C 242.699219 119.941406 242.726563 121.496094 242.15625 122.867188 C 241.664063 124.03125 240.578125 124.835938 239.308594 124.9375 C 237.652344 125.015625 236.175781 123.902344 235.789063 122.269531 C 235.683594 121.804688 235.605469 121.3125 235.605469 120.847656 Z M 220.097656 115.023438 L 220.097656 131.152344 L 222.296875 131.152344 L 222.296875 124.574219 L 222.429688 124.835938 C 222.558594 125.042969 222.6875 125.25 222.84375 125.429688 C 223.152344 125.765625 223.546875 126.050781 223.980469 126.257813 C 225.09375 126.726563 226.339844 126.75 227.476563 126.363281 C 228.589844 125.972656 229.546875 125.171875 230.117188 124.109375 C 231.074219 122.21875 231.210938 120.019531 230.507813 118.027344 C 229.859375 116.03125 227.941406 114.738281 225.871094 114.867188 C 224.785156 114.867188 223.722656 115.28125 222.921875 115.980469 C 222.609375 116.289063 222.324219 116.628906 222.066406 116.988281 L 222.066406 115.023438 Z M 222.351563 120.871094 C 222.324219 119.96875 222.558594 119.085938 222.996094 118.285156 C 223.359375 117.636719 223.960938 117.171875 224.65625 116.9375 C 225.355469 116.703125 226.132813 116.757813 226.804688 117.042969 C 227.476563 117.402344 227.96875 117.972656 228.226563 118.699219 C 228.773438 120.121094 228.695313 121.726563 228.019531 123.101563 C 227.734375 123.667969 227.269531 124.136719 226.726563 124.445313 C 225.5625 124.964844 224.164063 124.679688 223.339844 123.695313 C 222.789063 123.046875 222.453125 122.246094 222.378906 121.417969 C 222.351563 121.234375 222.351563 121.054688 222.351563 120.871094 Z M 209.40625 115.980469 L 209.484375 117.972656 L 209.589844 117.894531 C 210.363281 117.25 211.320313 116.859375 212.335938 116.78125 C 212.925781 116.730469 213.546875 116.78125 214.117188 116.988281 C 214.789063 117.195313 215.308594 117.765625 215.488281 118.4375 C 215.566406 118.777344 215.59375 119.113281 215.617188 119.449219 C 214.867188 119.421875 214.117188 119.421875 213.367188 119.449219 C 212.203125 119.476563 211.035156 119.761719 209.976563 120.277344 C 208.914063 120.796875 208.1875 121.855469 208.136719 123.046875 C 208.058594 124.265625 208.65625 125.402344 209.664063 126.050781 C 210.441406 126.492188 211.347656 126.699219 212.253906 126.671875 C 213.289063 126.671875 214.273438 126.335938 215.050781 125.664063 C 215.339844 125.402344 215.566406 125.121094 215.773438 124.78125 L 215.773438 126.515625 L 217.769531 126.515625 L 217.769531 119.347656 C 217.796875 118.75 217.714844 118.128906 217.535156 117.558594 C 217.277344 116.550781 216.550781 115.71875 215.59375 115.308594 C 214.246094 114.816406 212.769531 114.738281 211.371094 115.097656 C 210.648438 115.253906 209.976563 115.566406 209.40625 115.980469 Z M 215.644531 121.183594 C 215.671875 121.703125 215.59375 122.21875 215.464844 122.738281 C 215.28125 123.515625 214.765625 124.160156 214.066406 124.523438 C 213.238281 124.914063 212.335938 124.9375 211.476563 124.628906 C 211.191406 124.523438 210.933594 124.316406 210.753906 124.058594 C 210.441406 123.566406 210.441406 122.945313 210.726563 122.453125 C 210.882813 122.117188 211.140625 121.855469 211.476563 121.703125 C 211.941406 121.46875 212.433594 121.3125 212.953125 121.261719 C 213.859375 121.15625 214.738281 121.132813 215.644531 121.183594 Z M 195.941406 130.582031 C 196.847656 130.972656 197.804688 131.203125 198.789063 131.308594 C 200.109375 131.515625 201.460938 131.386719 202.726563 130.972656 C 203.527344 130.710938 204.253906 130.195313 204.769531 129.546875 C 205.289063 128.847656 205.597656 128.019531 205.675781 127.191406 C 205.78125 126.234375 205.835938 125.300781 205.804688 124.34375 L 205.804688 115.023438 L 203.734375 115.023438 L 203.714844 116.757813 L 203.242188 116.265625 C 202.90625 115.902344 202.546875 115.617188 202.128906 115.382813 C 200.992188 114.816406 199.695313 114.738281 198.503906 115.152344 C 197.3125 115.539063 196.328125 116.394531 195.761719 117.535156 C 195.136719 118.722656 194.90625 120.070313 195.007813 121.417969 C 195.0625 122.660156 195.503906 123.875 196.277344 124.859375 C 197.496094 126.285156 199.464844 126.855469 201.273438 126.308594 C 201.871094 126.179688 202.441406 125.894531 202.90625 125.507813 C 203.140625 125.273438 203.371094 125.042969 203.578125 124.78125 C 203.605469 125.328125 203.605469 125.871094 203.554688 126.414063 C 203.527344 126.957031 203.371094 127.476563 203.113281 127.941406 C 202.777344 128.589844 202.210938 129.054688 201.484375 129.234375 C 200.523438 129.496094 199.488281 129.519531 198.53125 129.3125 C 197.703125 129.105469 196.898438 128.820313 196.148438 128.460938 Z M 197.390625 120.820313 C 197.390625 120.019531 197.546875 119.242188 197.882813 118.542969 C 198.402344 117.402344 199.59375 116.703125 200.839844 116.859375 C 201.636719 116.988281 202.339844 117.429688 202.777344 118.101563 C 203.839844 119.65625 203.863281 121.703125 202.828125 123.28125 C 202.234375 124.1875 201.144531 124.679688 200.058594 124.550781 C 198.945313 124.394531 198.039063 123.644531 197.675781 122.609375 C 197.496094 122.011719 197.390625 121.417969 197.390625 120.820313 Z M 182.554688 115.023438 L 182.554688 126.515625 L 184.839844 126.515625 L 184.839844 122.039063 C 184.78125 121.367188 184.808594 120.691406 184.886719 120.019531 C 184.9375 119.421875 185.121094 118.878906 185.378906 118.363281 C 186.003906 117.171875 187.347656 116.574219 188.640625 116.859375 C 189.339844 117.015625 189.910156 117.480469 190.195313 118.128906 C 190.378906 118.59375 190.480469 119.085938 190.480469 119.578125 L 190.480469 126.515625 L 192.679688 126.515625 L 192.679688 119.242188 C 192.679688 118.542969 192.523438 117.816406 192.238281 117.171875 C 191.980469 116.496094 191.515625 115.929688 190.921875 115.511719 C 189.988281 114.945313 188.847656 114.710938 187.734375 114.890625 C 186.441406 115.046875 185.253906 115.796875 184.574219 116.9375 L 184.574219 115.023438 Z M 177.949219 126.515625 L 180.226563 126.515625 L 180.226563 114.996094 L 177.949219 114.996094 Z M 177.949219 112.457031 L 180.226563 112.457031 L 180.226563 110 L 177.949219 110 Z M 166.683594 126.027344 L 166.789063 126.050781 C 167.304688 126.285156 167.847656 126.441406 168.421875 126.542969 C 169.664063 126.777344 170.960938 126.726563 172.199219 126.414063 C 174.21875 125.921875 175.617188 124.109375 175.617188 122.039063 C 175.671875 120.71875 175.074219 119.5 174.011719 118.75 C 173.46875 118.363281 172.898438 118 172.304688 117.714844 C 171.578125 117.351563 170.851563 116.964844 170.15625 116.523438 C 169.816406 116.316406 169.53125 116.03125 169.328125 115.695313 C 168.9375 115.097656 168.964844 114.324219 169.378906 113.726563 C 169.6875 113.339844 170.128906 113.054688 170.621094 112.949219 C 171.371094 112.769531 172.175781 112.769531 172.925781 112.949219 C 173.492188 113.105469 174.0625 113.261719 174.605469 113.46875 L 174.945313 111.34375 C 174.632813 111.242188 174.347656 111.136719 174.039063 111.0625 C 172.613281 110.671875 171.089844 110.644531 169.636719 111.035156 C 168.289063 111.371094 167.203125 112.382813 166.738281 113.726563 C 166.324219 114.996094 166.554688 116.417969 167.410156 117.480469 C 167.796875 117.894531 168.238281 118.257813 168.730469 118.542969 C 169.429688 118.957031 170.179688 119.347656 170.929688 119.707031 C 171.320313 119.890625 171.710938 120.097656 172.070313 120.355469 C 172.382813 120.589844 172.664063 120.898438 172.871094 121.234375 C 173.105469 121.703125 173.15625 122.246094 173.027344 122.761719 C 172.898438 123.28125 172.5625 123.722656 172.121094 124.003906 C 171.371094 124.445313 170.515625 124.628906 169.664063 124.550781 C 168.703125 124.445313 167.773438 124.1875 166.921875 123.773438 Z M 145.738281 115.046875 L 145.738281 116.835938 L 148.433594 116.835938 L 148.433594 126.515625 L 150.65625 126.515625 L 150.65625 116.835938 L 153.796875 116.835938 L 153.796875 115.046875 L 150.65625 115.046875 L 150.65625 114.945313 C 150.632813 114.375 150.65625 113.777344 150.738281 113.210938 C 150.789063 112.871094 150.890625 112.5625 151.019531 112.25 C 151.175781 111.941406 151.464844 111.707031 151.796875 111.605469 C 152.085938 111.527344 152.394531 111.5 152.730469 111.5 C 153.039063 111.527344 153.378906 111.578125 153.6875 111.65625 L 153.796875 109.6875 L 153.195313 109.636719 C 152.601563 109.585938 152.003906 109.585938 151.433594 109.664063 C 150.378906 109.765625 149.441406 110.414063 148.921875 111.34375 C 148.691406 111.835938 148.535156 112.40625 148.484375 112.949219 C 148.433594 113.648438 148.40625 114.347656 148.433594 115.046875 Z M 133.003906 120.820313 C 132.949219 123.4375 134.632813 125.765625 137.117188 126.570313 C 139.601563 127.34375 142.320313 126.363281 143.769531 124.1875 C 144.574219 122.839844 144.882813 121.261719 144.601563 119.734375 C 144.394531 117.558594 142.921875 115.71875 140.847656 115.023438 C 138.257813 114.117188 135.382813 115.097656 133.90625 117.378906 C 133.3125 118.4375 133.027344 119.628906 133.003906 120.820313 Z M 135.355469 120.847656 C 135.355469 119.941406 135.589844 119.0625 136.003906 118.257813 C 136.597656 117.171875 137.789063 116.523438 139.03125 116.601563 C 140.277344 116.652344 141.390625 117.429688 141.855469 118.59375 C 142.449219 119.941406 142.476563 121.496094 141.90625 122.867188 C 141.414063 124.03125 140.328125 124.835938 139.058594 124.9375 C 137.402344 125.015625 135.925781 123.902344 135.539063 122.269531 C 135.433594 121.804688 135.355469 121.3125 135.355469 120.847656 Z M 135.355469 120.847656 "/>
</g>
</svg>
